<?xml version="1.0" standalone="no"?>
<!DOCTYPE svg PUBLIC "-//W3C//DTD SVG 20010904//EN"
 "http://www.w3.org/TR/2001/REC-SVG-20010904/DTD/svg10.dtd">
<svg version="1.0" xmlns="http://www.w3.org/2000/svg"
 width="32.000000pt" height="32.000000pt" viewBox="0 0 32.000000 32.000000"
 preserveAspectRatio="xMidYMid meet">

<g transform="translate(0.000000,32.000000) scale(0.100000,-0.100000)"
fill="#000000" stroke="none">
<path d="M25 295 c-24 -23 -25 -31 -25 -135 0 -104 1 -112 25 -135 23 -24 31
-25 135 -25 104 0 112 1 135 25 24 23 25 31 25 135 0 104 -1 112 -25 135 -23
24 -31 25 -135 25 -104 0 -112 -1 -135 -25z m253 -17 c16 -16 16 -220 0 -236
-16 -16 -220 -16 -236 0 -16 16 -16 220 0 236 16 16 220 16 236 0z"/>
<path d="M83 228 c5 -18 149 -18 155 0 3 9 -17 12 -78 12 -61 0 -81 -3 -77
-12z"/>
<path d="M80 160 c0 -6 33 -10 80 -10 47 0 80 4 80 10 0 6 -33 10 -80 10 -47
0 -80 -4 -80 -10z"/>
<path d="M87 104 c-18 -18 -1 -24 74 -24 60 0 80 3 77 13 -5 13 -139 23 -151
11z"/>
</g>
</svg>
