<?xml version="1.0" standalone="no"?>
<!DOCTYPE svg PUBLIC "-//W3C//DTD SVG 20010904//EN"
 "http://www.w3.org/TR/2001/REC-SVG-20010904/DTD/svg10.dtd">
<svg version="1.0" xmlns="http://www.w3.org/2000/svg"
 width="32.000000pt" height="32.000000pt" viewBox="0 0 32.000000 32.000000"
 preserveAspectRatio="xMidYMid meet">

<g transform="translate(0.000000,32.000000) scale(0.100000,-0.100000)"
fill="#000000" stroke="none">
<path d="M155 304 c-5 -1 -22 -5 -36 -8 -14 -3 -38 -17 -54 -31 l-28 -26 22
-15 c19 -14 23 -13 43 6 24 22 68 26 99 9 16 -8 25 -7 40 7 17 15 18 20 6 32
-14 14 -74 31 -92 26z"/>
<path d="M170 155 c0 -22 4 -25 35 -25 19 0 35 -4 35 -9 0 -13 -50 -51 -66
-51 -8 0 -14 -11 -14 -26 0 -24 3 -26 30 -20 61 12 110 70 110 130 0 25 -2 26
-65 26 -63 0 -65 -1 -65 -25z m58 -110 c-3 -3 -9 2 -12 12 -6 14 -5 15 5 6 7
-7 10 -15 7 -18z"/>
</g>
</svg>
