<?xml version="1.0" standalone="no"?>
<!DOCTYPE svg PUBLIC "-//W3C//DTD SVG 20010904//EN"
 "http://www.w3.org/TR/2001/REC-SVG-20010904/DTD/svg10.dtd">
<svg version="1.0" xmlns="http://www.w3.org/2000/svg"
 width="64.000000pt" height="64.000000pt" viewBox="0 0 64.000000 64.000000"
 preserveAspectRatio="xMidYMid meet">

<g transform="translate(0.000000,64.000000) scale(0.100000,-0.100000)"
fill="#000000" stroke="none">
<path d="M178 624 c-15 -8 -35 -28 -43 -44 -17 -33 -20 -100 -5 -100 6 0 10
18 10 41 0 76 88 128 146 84 17 -13 17 -14 2 -15 -10 0 -18 -4 -18 -10 0 -16
23 -11 65 15 54 33 97 32 137 -4 28 -25 32 -34 31 -78 0 -27 -10 -71 -21 -96
l-21 -47 -141 0 c-116 0 -142 3 -146 15 -4 8 -10 13 -15 10 -14 -9 2 -35 22
-35 10 0 19 -4 19 -9 0 -5 7 -17 16 -26 15 -15 15 -17 -1 -35 -17 -19 -17 -21
0 -40 16 -18 16 -20 1 -35 -20 -20 -20 -20 0 -40 15 -15 15 -17 -1 -35 -16
-18 -17 -22 -3 -37 9 -10 19 -28 22 -40 10 -31 53 -63 86 -63 33 0 76 32 86
63 3 12 13 30 22 40 14 15 13 19 -3 37 -16 18 -16 20 -1 35 21 21 20 32 -1 44
-17 9 -16 11 1 30 18 20 18 22 1 41 -16 18 -16 20 -1 35 9 9 16 21 16 26 0 5
8 9 19 9 46 0 81 177 45 228 -34 49 -101 65 -154 37 -27 -14 -33 -14 -60 0
-36 19 -77 19 -112 -1z m237 -274 c4 -6 -30 -10 -95 -10 -65 0 -99 4 -95 10 3
6 46 10 95 10 49 0 92 -4 95 -10z m-25 -40 c0 -6 -30 -10 -70 -10 -40 0 -70 4
-70 10 0 6 30 10 70 10 40 0 70 -4 70 -10z m25 -40 c-3 -5 -46 -10 -95 -10
-49 0 -92 5 -95 10 -4 6 30 10 95 10 65 0 99 -4 95 -10z m-25 -40 c0 -6 -30
-10 -70 -10 -40 0 -70 4 -70 10 0 6 30 10 70 10 40 0 70 -4 70 -10z m25 -30
c4 -6 -30 -10 -95 -10 -65 0 -99 4 -95 10 3 6 46 10 95 10 49 0 92 -4 95 -10z
m-25 -40 c0 -6 -30 -10 -70 -10 -40 0 -70 4 -70 10 0 6 30 10 70 10 40 0 70
-4 70 -10z m24 -39 c-5 -5 -22 -11 -39 -14 -28 -4 -29 -5 -7 -12 27 -9 28 -29
2 -55 -26 -26 -68 -25 -97 2 -33 31 -29 48 11 48 19 0 38 5 41 10 4 6 -13 10
-44 10 -27 0 -53 5 -56 10 -4 6 31 10 96 10 63 0 99 -4 93 -9z"/>
<path d="M130 446 c0 -8 5 -18 10 -21 6 -3 10 1 10 9 0 8 -4 18 -10 21 -5 3
-10 -1 -10 -9z"/>
</g>
</svg>
