<?xml version="1.0" standalone="no"?>
<!DOCTYPE svg PUBLIC "-//W3C//DTD SVG 20010904//EN"
 "http://www.w3.org/TR/2001/REC-SVG-20010904/DTD/svg10.dtd">
<svg version="1.0" xmlns="http://www.w3.org/2000/svg"
 width="32.000000pt" height="32.000000pt" viewBox="0 0 32.000000 32.000000"
 preserveAspectRatio="xMidYMid meet">

<g transform="translate(0.000000,32.000000) scale(0.100000,-0.100000)"
fill="#000000" stroke="none">
<path d="M101 286 c-13 -14 -21 -32 -18 -43 4 -16 5 -15 6 3 2 31 33 54 73 54
37 0 62 -20 71 -55 5 -19 5 -19 6 1 3 57 -95 86 -138 40z"/>
<path d="M120 270 c-11 -11 -20 -31 -20 -44 0 -18 -6 -25 -22 -28 -22 -3 -23
-8 -26 -96 l-3 -92 111 0 111 0 -3 92 c-3 88 -4 93 -25 96 -17 3 -23 10 -23
28 0 29 -33 64 -60 64 -11 0 -29 -9 -40 -20z m74 -6 c9 -8 16 -26 16 -40 0
-22 -4 -24 -50 -24 -46 0 -50 2 -50 24 0 29 24 56 50 56 10 0 26 -7 34 -16z
m66 -159 l0 -85 -100 0 -100 0 0 85 0 85 100 0 100 0 0 -85z"/>
<path d="M142 137 c-14 -17 0 -72 18 -72 18 0 32 55 18 72 -6 7 -14 13 -18 13
-4 0 -12 -6 -18 -13z m32 -15 c-1 -7 -2 -21 -2 -32 -1 -11 -6 -20 -11 -20 -10
0 -22 51 -14 63 7 11 28 3 27 -11z"/>
</g>
</svg>
