<?xml version="1.0" standalone="no"?>
<!DOCTYPE svg PUBLIC "-//W3C//DTD SVG 20010904//EN"
 "http://www.w3.org/TR/2001/REC-SVG-20010904/DTD/svg10.dtd">
<svg version="1.0" xmlns="http://www.w3.org/2000/svg"
 width="64.000000pt" height="64.000000pt" viewBox="0 0 64.000000 64.000000"
 preserveAspectRatio="xMidYMid meet">

<g transform="translate(0.000000,64.000000) scale(0.100000,-0.100000)"
fill="#000000" stroke="none">
<path d="M12 528 c-18 -18 -16 -148 4 -176 14 -21 14 -26 0 -63 -20 -49 -20
-89 -2 -115 13 -17 14 -14 10 36 -4 41 -2 60 10 75 15 20 15 19 16 -7 0 -38
21 -54 66 -52 21 1 44 -1 49 -6 13 -10 297 -10 310 0 6 5 28 7 49 6 45 -2 66
14 66 52 1 26 1 26 15 8 25 -33 19 -91 -14 -128 -25 -28 -35 -32 -82 -33 -49
0 -54 2 -57 23 -2 12 -7 22 -12 22 -5 0 -10 -10 -12 -22 -3 -20 -8 -23 -48
-21 -25 1 -52 2 -60 2 -8 0 -35 -1 -60 -2 -40 -2 -45 1 -48 20 -4 30 -20 30
-24 1 -4 -28 -44 -35 -101 -18 -50 15 -61 5 -16 -14 40 -16 217 -19 237 -4 8
7 16 7 25 -1 18 -14 215 -8 245 8 30 16 62 69 62 103 0 15 -7 45 -16 67 -14
37 -14 42 0 63 21 29 22 160 2 177 -15 13 -61 0 -68 -19 -2 -7 -18 -5 -47 7
-40 16 -47 16 -87 1 -38 -13 -44 -13 -58 0 -19 20 -73 20 -92 0 -13 -13 -21
-13 -52 -2 -43 15 -72 18 -72 5 0 -5 17 -11 38 -15 21 -3 56 -19 77 -36 22
-16 46 -30 53 -30 8 0 34 15 59 33 61 43 108 43 186 -1 52 -31 57 -37 57 -68
0 -36 -13 -46 -24 -18 -4 10 -14 14 -24 12 -10 -3 -27 1 -37 8 -12 9 -24 10
-35 4 -9 -5 -41 -7 -71 -4 -30 2 -63 3 -74 3 -11 0 -27 -1 -35 -1 -8 0 -24 1
-35 1 -11 0 -44 -1 -74 -3 -30 -3 -62 -1 -71 4 -11 6 -23 5 -35 -4 -10 -7 -27
-11 -37 -8 -10 2 -20 -2 -24 -12 -11 -28 -24 -18 -24 18 0 31 5 37 55 65 57
32 71 47 33 38 -12 -4 -26 0 -32 7 -16 21 -50 28 -64 14z m39 -19 c22 -11 18
-23 -12 -39 -17 -10 -19 -7 -19 20 0 33 2 35 31 19z m299 -4 c15 -18 -2 -45
-30 -45 -10 0 -23 7 -30 15 -15 18 2 45 30 45 10 0 23 -7 30 -15z m270 -15 c0
-27 -2 -30 -19 -20 -29 15 -34 28 -14 39 28 16 33 13 33 -19z m-464 -126 c8
-33 -2 -54 -26 -54 -17 0 -20 6 -20 38 0 21 3 41 6 45 11 11 34 -5 40 -29z
m142 24 c7 -7 12 -27 12 -45 0 -31 -2 -33 -35 -33 -32 0 -35 2 -35 29 0 27 21
61 39 61 4 0 12 -5 19 -12z m86 -4 c9 -8 16 -29 16 -45 0 -27 -3 -29 -35 -29
-33 0 -35 2 -35 33 0 31 14 57 31 57 4 0 15 -7 23 -16z m146 -33 l0 -38 -55
-1 -55 0 0 33 c0 44 18 55 42 25 10 -12 18 -18 18 -12 0 16 30 43 41 37 5 -4
9 -23 9 -44z m-312 -5 c3 -34 1 -37 -20 -34 -27 4 -37 41 -17 64 19 23 34 11
37 -30z m-134 18 c12 -32 6 -54 -14 -54 -15 0 -20 7 -20 28 0 41 22 58 34 26z
m504 -22 c3 -27 0 -32 -17 -32 -14 0 -21 6 -21 19 0 56 33 67 38 13z m-490
-74 c-2 -13 -7 -23 -13 -23 -5 0 -11 10 -13 23 -2 15 2 22 13 22 11 0 15 -7
13 -22z m62 10 c0 -22 -17 -41 -29 -34 -19 12 -13 46 9 46 11 0 20 -6 20 -12z
m48 -15 c-2 -17 -9 -28 -18 -28 -9 0 -16 11 -18 28 -3 22 1 27 18 27 17 0 21
-5 18 -27z m72 13 c0 -28 -12 -46 -31 -46 -14 0 -19 7 -19 30 0 25 4 30 25 30
15 0 25 -6 25 -14z m70 0 c0 -42 -41 -65 -54 -30 -13 33 -6 44 24 44 19 0 30
-5 30 -14z m60 -16 c0 -23 -5 -30 -19 -30 -19 0 -31 18 -31 46 0 8 10 14 25
14 21 0 25 -5 25 -30z m58 3 c-4 -37 -32 -37 -36 0 -3 22 1 27 18 27 17 0 21
-5 18 -27z m52 8 c0 -25 -20 -38 -31 -20 -15 23 -10 39 11 39 13 0 20 -7 20
-19z m48 -3 c-2 -13 -7 -23 -13 -23 -5 0 -11 10 -13 23 -2 15 2 22 13 22 11 0
15 -7 13 -22z"/>
</g>
</svg>
