<?xml version="1.0" standalone="no"?>
<!DOCTYPE svg PUBLIC "-//W3C//DTD SVG 20010904//EN"
 "http://www.w3.org/TR/2001/REC-SVG-20010904/DTD/svg10.dtd">
<svg version="1.0" xmlns="http://www.w3.org/2000/svg"
 width="64.000000pt" height="64.000000pt" viewBox="0 0 64.000000 64.000000"
 preserveAspectRatio="xMidYMid meet">

<g transform="translate(0.000000,64.000000) scale(0.100000,-0.100000)"
fill="#000000" stroke="none">
<path d="M114 598 c3 -18 8 -71 11 -118 7 -91 28 -145 69 -178 16 -12 29 -38
37 -68 23 -95 62 -100 73 -10 4 31 11 56 16 56 4 0 12 -26 16 -58 8 -47 12
-57 29 -57 16 0 24 13 39 60 11 33 30 68 43 78 40 32 61 87 68 177 3 47 8 100
11 118 3 17 1 32 -4 32 -4 0 -13 -54 -20 -120 -11 -126 -30 -178 -72 -200 -29
-16 -37 -12 -12 6 41 29 53 68 57 197 3 78 1 113 -4 97 -5 -14 -9 -58 -10 -99
-1 -75 -1 -75 -20 -54 -18 19 -30 21 -126 19 -93 -1 -108 -3 -121 -20 -13 -18
-14 -12 -15 55 -1 41 -5 85 -10 99 -5 16 -7 -19 -4 -97 4 -129 16 -168 57
-197 25 -18 17 -22 -12 -6 -42 22 -61 74 -72 200 -7 66 -16 120 -20 120 -5 0
-7 -15 -4 -32z m186 -145 c26 -15 29 -15 45 0 28 28 74 16 95 -24 15 -28 -4
-83 -38 -108 -21 -15 -24 -22 -14 -33 13 -16 7 -67 -10 -102 -8 -15 -12 -16
-19 -5 -5 8 -9 28 -9 44 0 49 -11 75 -30 75 -19 0 -30 -26 -30 -75 0 -16 -4
-36 -9 -44 -7 -11 -11 -10 -19 5 -17 34 -23 86 -10 101 9 12 6 19 -15 36 -24
20 -47 63 -47 88 0 16 48 59 66 59 9 0 29 -7 44 -17z"/>
<path d="M32 334 c-21 -14 -22 -22 -22 -159 0 -137 1 -145 22 -159 33 -24 543
-24 576 0 21 14 22 22 22 159 0 137 -1 145 -22 159 -28 20 -61 20 -96 2 -32
-17 -45 -39 -67 -121 -29 -104 -64 -132 -106 -83 l-19 23 -19 -22 c-42 -50
-77 -22 -106 82 -22 82 -35 104 -67 121 -35 18 -68 18 -96 -2z m123 -48 c8
-17 21 -57 30 -90 16 -59 51 -106 79 -106 8 0 24 10 36 22 l20 22 20 -22 c50
-53 94 -6 130 136 15 58 41 82 88 82 21 0 43 -5 50 -12 17 -17 17 -269 0 -286
-17 -17 -559 -17 -576 0 -17 17 -17 272 1 286 37 30 102 14 122 -32z"/>
</g>
</svg>
