<?xml version="1.0" standalone="no"?>
<!DOCTYPE svg PUBLIC "-//W3C//DTD SVG 20010904//EN"
 "http://www.w3.org/TR/2001/REC-SVG-20010904/DTD/svg10.dtd">
<svg version="1.0" xmlns="http://www.w3.org/2000/svg"
 width="64.000000pt" height="64.000000pt" viewBox="0 0 64.000000 64.000000"
 preserveAspectRatio="xMidYMid meet">

<g transform="translate(0.000000,64.000000) scale(0.100000,-0.100000)"
fill="#000000" stroke="none">
<path d="M238 605 c-16 -9 -28 -22 -28 -30 0 -8 -7 -15 -15 -15 -22 0 -84 -59
-106 -102 -13 -25 -26 -38 -39 -38 -13 0 -26 -12 -37 -35 -23 -48 -9 -87 35
-100 17 -5 35 -17 38 -28 3 -10 19 -33 35 -52 29 -33 30 -34 10 -45 -26 -14
-63 -85 -59 -113 6 -40 30 -24 48 32 25 76 39 87 80 66 45 -23 137 -30 200
-15 48 12 53 11 72 -8 12 -11 24 -38 27 -59 4 -23 12 -39 22 -41 39 -7 27 78
-16 118 l-24 23 26 31 c14 17 32 45 39 63 8 19 22 33 35 35 12 2 31 15 42 30
27 37 17 77 -23 84 -22 5 -30 13 -35 35 -9 41 -52 89 -100 110 -48 22 -81 24
-88 5 -7 -18 12 -36 37 -36 32 0 83 -36 101 -69 30 -59 16 -154 -33 -220 -84
-113 -304 -87 -363 43 -35 78 -22 151 42 229 32 39 49 47 49 22 0 -31 47 -65
87 -64 29 2 32 3 11 6 -34 5 -78 46 -78 72 0 46 80 71 88 28 3 -15 -1 -18 -16
-13 -12 4 -24 0 -32 -9 -11 -13 -11 -19 2 -32 37 -36 90 24 66 75 -16 32 -59
39 -100 17z m-176 -250 c-2 -19 -8 -35 -13 -35 -10 0 -12 31 -3 54 11 28 20
17 16 -19z m548 6 c0 -21 -23 -45 -33 -34 -4 3 -7 17 -7 30 0 16 6 23 20 23
13 0 20 -7 20 -19z"/>
<path d="M180 359 c0 -24 23 -21 28 4 2 10 -3 17 -12 17 -10 0 -16 -9 -16 -21z"/>
<path d="M422 363 c5 -25 28 -28 28 -4 0 12 -6 21 -16 21 -9 0 -14 -7 -12 -17z"/>
<path d="M242 323 c-12 -2 -27 -13 -33 -25 -27 -50 46 -116 115 -103 44 9 95
53 99 85 2 22 -3 25 -63 37 -67 13 -80 13 -118 6z m12 -48 c6 -22 11 -25 56
-25 38 0 52 5 63 21 8 11 18 16 21 11 12 -19 -6 -41 -46 -57 -64 -25 -128 5
-128 59 0 26 27 18 34 -9z m56 21 c0 -2 -7 -9 -15 -16 -12 -10 -15 -10 -15 4
0 9 7 16 15 16 8 0 15 -2 15 -4z m35 -5 c3 -5 1 -12 -5 -16 -5 -3 -10 1 -10 9
0 18 6 21 15 7z"/>
</g>
</svg>
