<?xml version="1.0" standalone="no"?>
<!DOCTYPE svg PUBLIC "-//W3C//DTD SVG 20010904//EN"
 "http://www.w3.org/TR/2001/REC-SVG-20010904/DTD/svg10.dtd">
<svg version="1.0" xmlns="http://www.w3.org/2000/svg"
 width="64.000000pt" height="64.000000pt" viewBox="0 0 64.000000 64.000000"
 preserveAspectRatio="xMidYMid meet">

<g transform="translate(0.000000,64.000000) scale(0.100000,-0.100000)"
fill="#000000" stroke="none">
<path d="M160 570 c0 -43 3 -50 19 -50 14 0 21 -8 23 -27 2 -22 8 -28 28 -28
20 0 26 6 28 28 2 19 9 27 23 27 10 0 19 4 19 10 0 5 49 11 113 12 l112 3 0
25 0 25 -112 3 c-64 1 -113 7 -113 12 0 6 -31 10 -70 10 l-70 0 0 -50z m40 10
c-6 -11 -13 -20 -15 -20 -3 0 -5 9 -5 20 0 11 7 20 15 20 13 0 14 -4 5 -20z
m43 -10 c-9 -16 -23 -30 -31 -30 -10 0 -9 7 5 30 9 17 23 30 31 30 10 0 9 -7
-5 -30z m37 -10 c0 -11 -7 -20 -15 -20 -13 0 -14 4 -5 20 6 11 13 20 15 20 3
0 5 -9 5 -20z m230 10 c0 -6 -42 -10 -105 -10 -63 0 -105 4 -105 10 0 6 42 10
105 10 63 0 105 -4 105 -10z"/>
<path d="M342 470 c-12 -5 -28 -7 -36 -4 -8 3 -24 -4 -35 -15 -16 -16 -28 -19
-53 -14 -18 3 -34 10 -36 15 -8 18 -33 6 -53 -24 -23 -37 -21 -98 4 -126 8 -9
20 -57 27 -107 18 -136 27 -164 54 -171 46 -11 64 10 82 96 10 44 20 80 24 80
4 0 14 -36 24 -80 18 -86 36 -107 82 -96 27 7 37 37 54 171 6 50 18 97 26 106
41 45 21 134 -36 164 -32 17 -92 19 -128 5z m139 -39 c34 -35 38 -77 10 -112
-12 -17 -23 -61 -35 -143 -9 -69 -21 -123 -28 -128 -36 -23 -50 -3 -72 105
-24 116 -48 116 -72 0 -22 -108 -36 -128 -72 -105 -7 5 -19 59 -28 128 -12 82
-23 126 -35 143 -11 13 -19 36 -19 50 0 33 26 71 37 55 13 -19 103 -12 118 10
8 10 18 15 23 12 5 -3 22 -1 38 4 61 18 104 12 135 -19z"/>
</g>
</svg>
