<?xml version="1.0" standalone="no"?>
<!DOCTYPE svg PUBLIC "-//W3C//DTD SVG 20010904//EN"
 "http://www.w3.org/TR/2001/REC-SVG-20010904/DTD/svg10.dtd">
<svg version="1.0" xmlns="http://www.w3.org/2000/svg"
 width="32.000000pt" height="32.000000pt" viewBox="0 0 32.000000 32.000000"
 preserveAspectRatio="xMidYMid meet">

<g transform="translate(0.000000,32.000000) scale(0.100000,-0.100000)"
fill="#000000" stroke="none">
<path d="M7 274 c-12 -13 -8 -159 5 -172 7 -7 42 -12 86 -12 67 0 77 -3 98
-25 23 -25 67 -34 79 -16 3 5 -8 9 -24 9 -17 -1 -37 5 -46 12 -20 16 -19 64 1
84 19 19 68 21 83 3 15 -18 18 -51 6 -57 -5 -3 -11 5 -13 16 -4 27 -37 37 -57
17 -11 -10 -12 -20 -5 -32 12 -23 89 -26 97 -5 10 26 -7 64 -37 79 -24 12 -29
22 -32 57 l-3 43 -116 3 c-63 1 -118 -1 -122 -4z m173 -44 c-25 -22 -49 -40
-55 -40 -5 0 -30 18 -55 40 l-45 39 100 0 100 0 -45 -39z m60 -8 c0 -29 -5
-39 -22 -47 -13 -6 -29 -23 -36 -38 -13 -27 -15 -28 -90 -25 l-77 3 -3 68 c-2
37 1 67 5 67 5 0 30 -18 57 -40 53 -44 56 -44 121 14 22 19 41 35 43 36 1 0 2
-17 2 -38z m23 -99 c9 -9 -13 -34 -24 -27 -14 8 -11 34 4 34 8 0 17 -3 20 -7z"/>
</g>
</svg>
