<?xml version="1.0" standalone="no"?>
<!DOCTYPE svg PUBLIC "-//W3C//DTD SVG 20010904//EN"
 "http://www.w3.org/TR/2001/REC-SVG-20010904/DTD/svg10.dtd">
<svg version="1.0" xmlns="http://www.w3.org/2000/svg"
 width="64.000000pt" height="64.000000pt" viewBox="0 0 64.000000 64.000000"
 preserveAspectRatio="xMidYMid meet">

<g transform="translate(0.000000,64.000000) scale(0.100000,-0.100000)"
fill="#000000" stroke="none">
<path d="M140 603 c-23 -9 -60 -45 -76 -75 -19 -37 -18 -104 5 -168 10 -30 21
-83 23 -117 4 -60 3 -63 -19 -63 -27 0 -28 -3 -7 -35 11 -17 14 -35 10 -60 -8
-39 -2 -43 26 -19 17 16 19 15 39 -10 48 -61 100 1 122 145 9 61 17 84 27 84
11 0 17 -18 22 -69 17 -172 91 -240 140 -129 11 26 24 85 29 140 5 60 16 112
29 138 11 23 20 51 20 63 0 22 32 62 50 62 26 0 6 19 -26 24 -25 5 -41 16 -52
36 -32 56 -101 71 -179 39 -28 -11 -39 -11 -80 4 -49 17 -76 20 -103 10z m92
-34 c50 -19 53 -20 97 -3 50 19 90 21 120 4 30 -16 26 -44 -12 -76 -35 -29
-35 -36 2 -40 14 -2 33 -11 43 -22 18 -17 18 -20 2 -57 -9 -21 -20 -81 -25
-133 -9 -101 -38 -182 -64 -182 -22 0 -46 60 -59 150 -12 84 -20 100 -44 100
-36 0 -46 -18 -53 -92 -9 -90 -34 -158 -59 -158 -10 0 -21 7 -24 16 -5 12 -2
15 10 10 26 -10 35 4 18 30 -12 17 -15 36 -10 64 6 41 -3 51 -24 25 -21 -25
-27 -17 -33 48 -3 34 -16 89 -27 122 -34 96 -14 171 53 200 18 8 33 14 34 15
1 0 26 -9 55 -21z m297 -76 c1 -1 -3 -11 -11 -22 -13 -18 -17 -19 -33 -8 -15
11 -16 17 -6 36 11 19 15 20 29 9 9 -7 19 -13 21 -15z m-379 -358 c0 -20 -5
-25 -25 -25 -18 0 -25 5 -25 18 0 10 3 22 7 25 3 4 15 7 25 7 13 0 18 -7 18
-25z"/>
<path d="M200 541 c0 -29 121 -42 156 -17 27 20 13 28 -25 15 -30 -11 -60 -9
-108 6 -15 5 -23 3 -23 -4z"/>
<path d="M97 463 c-6 -11 45 -183 55 -183 14 0 9 36 -14 107 -22 71 -33 90
-41 76z"/>
</g>
</svg>
