<?xml version="1.0" standalone="no"?>
<!DOCTYPE svg PUBLIC "-//W3C//DTD SVG 20010904//EN"
 "http://www.w3.org/TR/2001/REC-SVG-20010904/DTD/svg10.dtd">
<svg version="1.0" xmlns="http://www.w3.org/2000/svg"
 width="64.000000pt" height="64.000000pt" viewBox="0 0 64.000000 64.000000"
 preserveAspectRatio="xMidYMid meet">

<g transform="translate(0.000000,64.000000) scale(0.100000,-0.100000)"
fill="#000000" stroke="none">
<path d="M29 480 c-6 -16 -15 -30 -20 -30 -6 0 -5 -6 1 -12 6 -7 16 -21 23
-31 11 -16 104 -42 164 -47 23 -2 223 -2 246 0 60 5 153 31 164 47 7 10 17 23
22 30 7 7 6 13 -4 16 -7 3 -15 16 -17 29 -4 27 -41 37 -64 17 -11 -9 -18 -9
-26 -1 -17 17 -53 15 -68 -3 -12 -14 -15 -14 -30 0 -23 21 -56 19 -80 -5 l-20
-20 -20 20 c-24 24 -57 26 -80 5 -15 -14 -18 -14 -30 0 -15 18 -51 20 -68 3
-9 -9 -15 -9 -24 0 -23 23 -58 14 -69 -18z m71 -5 c0 -2 3 -10 6 -19 8 -22
-12 -20 -41 3 -29 22 -15 47 17 30 10 -5 18 -11 18 -14z m78 9 c12 -8 22 -24
22 -35 0 -20 -16 -26 -22 -8 -2 6 -16 12 -31 12 -29 2 -35 15 -15 35 15 15 19
15 46 -4z m120 -12 c12 -16 17 -42 7 -42 -3 0 -14 6 -25 12 -16 10 -24 10 -40
0 -18 -11 -20 -10 -20 11 0 46 47 58 78 19z m110 16 c7 -7 12 -22 12 -35 0
-21 -2 -22 -20 -11 -16 10 -24 10 -40 0 -26 -16 -30 -15 -30 3 0 18 35 55 53
55 7 0 18 -5 25 -12z m100 0 c20 -20 14 -33 -15 -35 -15 0 -29 -6 -31 -12 -6
-18 -22 -12 -22 8 0 11 10 27 22 35 27 19 31 19 46 4z m68 -29 c-44 -35 -64
-17 -25 22 16 16 23 18 35 9 12 -10 10 -15 -10 -31z m-416 -23 c0 -3 -4 -8
-10 -11 -5 -3 -10 -1 -10 4 0 6 5 11 10 11 6 0 10 -2 10 -4z m340 -6 c0 -5 -2
-10 -4 -10 -3 0 -8 5 -11 10 -3 6 -1 10 4 10 6 0 11 -4 11 -10z m-394 -11 c10
-17 -9 -29 -34 -22 -18 4 -20 8 -11 19 14 17 35 18 45 3z m474 1 c17 -10 14
-15 -17 -24 -22 -7 -39 7 -28 24 8 12 25 13 45 0z m-380 -20 c0 -21 -30 -27
-64 -14 -25 9 -19 22 8 17 13 -3 27 0 30 6 11 18 26 13 26 -9z m266 9 c3 -6
17 -9 30 -6 27 5 33 -8 8 -17 -34 -13 -64 -7 -64 14 0 22 15 27 26 9z m-185
-8 c22 14 29 11 29 -11 0 -17 -7 -20 -45 -20 -38 0 -45 3 -45 20 0 16 4 18 23
11 14 -6 30 -6 38 0z m78 0 c8 -6 24 -6 38 0 19 7 23 5 23 -11 0 -17 -7 -20
-45 -20 -38 0 -45 3 -45 20 0 22 7 25 29 11z"/>
<path d="M54 242 c-14 -21 -14 -26 -1 -40 8 -10 17 -25 21 -36 5 -15 13 -17
39 -13 20 3 40 0 52 -9 16 -12 22 -12 41 1 20 13 24 12 39 -5 22 -24 38 -25
59 -4 15 14 17 14 32 0 21 -21 37 -20 59 4 15 17 19 18 39 5 19 -13 25 -13 41
-1 12 9 32 12 52 9 26 -4 34 -2 39 13 4 11 14 27 22 36 12 15 12 20 -2 40 -16
23 -17 23 -267 23 l-250 0 -15 -23z m76 -2 c0 -23 -17 -25 -42 -6 -21 16 -13
26 19 26 16 0 23 -6 23 -20z m433 13 c8 -7 -23 -32 -40 -33 -7 0 -13 9 -13 20
0 14 7 20 23 20 13 0 27 -3 30 -7z m-343 -23 c0 -21 -15 -27 -25 -10 -3 6 -15
10 -26 10 -10 0 -19 5 -19 10 0 6 16 10 35 10 28 0 35 -4 35 -20z m88 0 c2
-12 -6 -15 -38 -12 -39 4 -48 11 -33 26 13 13 68 2 71 -14z m100 0 c2 -11 -7
-15 -38 -15 -37 0 -50 11 -33 29 13 12 68 2 71 -14z m82 10 c0 -5 -9 -10 -19
-10 -11 0 -23 -4 -26 -10 -10 -17 -25 -11 -25 10 0 16 7 20 35 20 19 0 35 -4
35 -10z m-210 -34 c0 -3 -4 -8 -10 -11 -5 -3 -10 -1 -10 4 0 6 5 11 10 11 6 0
10 -2 10 -4z m-147 -20 c1 -5 -6 -14 -16 -20 -14 -8 -20 -8 -27 4 -6 9 -5 17
3 22 15 10 37 6 40 -6z m411 8 c17 -7 10 -34 -9 -34 -16 0 -37 25 -28 33 8 9
17 9 37 1z m-324 -13 c0 -15 -29 -33 -45 -27 -20 7 -19 23 3 29 29 8 42 7 42
-2z m76 -29 c-12 -13 -21 -14 -33 -6 -27 17 -26 32 0 27 14 -3 28 1 33 8 6 11
8 11 12 0 2 -7 -3 -20 -12 -29z m85 21 c23 6 21 -11 -3 -27 -19 -12 -48 7 -48
31 0 13 3 13 15 3 8 -7 24 -10 36 -7z m98 0 c3 -2 -1 -9 -7 -15 -14 -14 -42
-2 -50 21 -3 8 4 10 25 5 15 -4 30 -9 32 -11z"/>
</g>
</svg>
