<?xml version="1.0" standalone="no"?>
<!DOCTYPE svg PUBLIC "-//W3C//DTD SVG 20010904//EN"
 "http://www.w3.org/TR/2001/REC-SVG-20010904/DTD/svg10.dtd">
<svg version="1.0" xmlns="http://www.w3.org/2000/svg"
 width="64.000000pt" height="64.000000pt" viewBox="0 0 64.000000 64.000000"
 preserveAspectRatio="xMidYMid meet">

<g transform="translate(0.000000,64.000000) scale(0.100000,-0.100000)"
fill="#000000" stroke="none">
<path d="M467 612 c-15 -15 -27 -35 -27 -43 0 -21 -49 -66 -87 -79 -25 -9 -41
-8 -78 5 -80 27 -146 -4 -166 -77 -12 -46 6 -129 46 -208 14 -27 30 -73 36
-102 14 -66 33 -98 59 -98 25 0 35 25 44 110 12 114 39 119 52 10 11 -97 18
-115 46 -118 28 -3 38 14 59 103 7 28 22 70 35 95 35 72 57 157 49 197 -8 42
-54 93 -85 93 -29 0 -23 34 8 38 27 4 76 66 68 87 -8 23 -29 18 -59 -13z m43
1 c-1 -17 -38 -55 -49 -52 -9 3 -6 13 9 32 20 26 40 36 40 20z m-215 -148 c20
-15 40 -23 43 -20 4 3 1 10 -7 14 -9 6 -6 10 10 14 34 9 34 2 4 -37 -23 -31
-31 -34 -58 -29 -18 3 -34 6 -37 5 -51 -1 -80 -29 -80 -77 0 -19 9 -58 19 -87
11 -29 22 -66 25 -83 2 -16 7 -47 11 -68 11 -71 45 -38 45 46 0 55 24 107 50
107 24 0 50 -51 50 -98 0 -50 12 -92 26 -92 15 0 20 15 29 85 3 28 15 74 26
103 41 114 14 170 -80 162 -25 -2 -24 1 11 53 27 38 70 37 110 -4 29 -29 30
-33 26 -92 -3 -39 -15 -82 -32 -114 -14 -29 -35 -87 -47 -130 -21 -77 -34
-103 -50 -103 -11 0 -17 23 -29 110 -19 133 -61 133 -80 0 -12 -87 -18 -110
-29 -110 -17 0 -31 27 -42 81 -6 30 -27 90 -47 134 -23 51 -37 101 -40 137 -4
53 -2 59 26 88 40 39 93 41 147 5z m12 -78 c2 -3 -4 -22 -15 -44 -26 -51 -52
-138 -53 -182 -1 -27 -3 -30 -6 -11 -2 14 -15 60 -29 102 -24 79 -22 120 9
141 12 8 84 3 94 -6z m123 3 c31 -17 33 -60 6 -141 -13 -41 -28 -96 -32 -124
-7 -41 -9 -44 -11 -20 -2 17 -8 54 -14 83 -16 82 -69 104 -105 43 l-15 -26 6
30 c11 51 64 153 83 158 31 8 63 7 82 -3z m-173 -222 c-3 -8 -6 -5 -6 6 -1 11
2 17 5 13 3 -3 4 -12 1 -19z"/>
</g>
</svg>
