<?xml version="1.0" standalone="no"?>
<!DOCTYPE svg PUBLIC "-//W3C//DTD SVG 20010904//EN"
 "http://www.w3.org/TR/2001/REC-SVG-20010904/DTD/svg10.dtd">
<svg version="1.0" xmlns="http://www.w3.org/2000/svg"
 width="64.000000pt" height="64.000000pt" viewBox="0 0 64.000000 64.000000"
 preserveAspectRatio="xMidYMid meet">

<g transform="translate(0.000000,64.000000) scale(0.100000,-0.100000)"
fill="#000000" stroke="none">
<path d="M145 557 c-20 -17 -28 -35 -33 -72 -4 -37 -12 -54 -33 -73 -16 -13
-34 -41 -40 -62 -10 -33 -8 -49 15 -120 14 -45 26 -88 26 -96 0 -8 7 -28 15
-44 12 -23 23 -30 44 -30 42 0 61 28 61 89 0 45 3 52 18 49 13 -2 18 -15 20
-53 4 -55 24 -85 57 -85 35 0 50 27 84 148 27 95 31 119 21 145 -23 67 -86
101 -147 79 -19 -6 -44 -6 -76 2 -44 10 -47 13 -47 42 0 46 34 84 74 84 25 0
43 -10 74 -40 27 -27 49 -40 67 -40 18 0 29 -6 32 -20 5 -18 14 -20 99 -20 81
0 97 3 114 20 51 51 8 80 -117 80 -86 0 -93 -1 -93 -20 0 -35 -47 -25 -96 20
-52 48 -97 53 -139 17z m295 -67 c0 -23 -4 -30 -20 -30 -23 0 -35 22 -26 45 3
8 15 15 26 15 16 0 20 -7 20 -30z m140 15 c23 -27 -6 -46 -64 -43 -47 3 -51 5
-54 31 -3 27 -2 27 51 27 36 0 59 -5 67 -15z m-387 -94 c15 -6 39 -5 65 2 58
15 105 -7 122 -58 7 -20 10 -38 7 -41 -2 -3 -18 3 -35 13 -28 16 -35 16 -64 4
-42 -18 -94 -18 -135 -1 -28 12 -37 12 -68 -3 -38 -18 -40 -15 -24 32 15 43
44 58 54 28 7 -21 8 -21 12 6 5 29 23 34 66 18z m-5 -112 c27 -11 37 -11 65 0
53 22 80 23 105 3 l23 -18 -29 -99 c-26 -92 -30 -100 -55 -103 -29 -4 -34 8
-39 82 -3 46 -28 67 -55 50 -12 -7 -20 -28 -23 -64 -8 -86 -60 -98 -79 -18 -6
24 -19 67 -28 97 l-17 53 24 20 c26 21 51 20 108 -3z"/>
</g>
</svg>
